<svg width="303" height="303" viewBox="0 0 303 303" fill="none" xmlns="http://www.w3.org/2000/svg">
<g clip-path="url(#clip0_8_1202)">
<path d="M241.453 212.431V189.375C241.453 188.119 240.954 186.915 240.066 186.027C239.179 185.139 237.974 184.641 236.719 184.641H175.172V170.437C184.884 166.375 193.392 159.89 199.882 151.601C206.372 143.312 210.628 133.497 212.242 123.094C237.24 123.094 238.707 88.0593 215.13 85.2187C217.457 71.3016 218.346 57.1819 217.781 43.0828C217.741 35.4436 215.154 28.036 210.429 22.0332C205.703 16.0305 199.111 11.7755 191.695 9.94216C178.297 -2.55659 164.756 -2.94596e-05 141.463 -2.94596e-05C126.55 0.0125078 112.251 5.94226 101.706 16.4874C91.161 27.0326 85.2313 41.3313 85.2187 56.2443C85.237 65.9622 86.1243 75.6589 87.87 85.2187C64.1981 87.87 65.7131 123.094 90.758 123.094C92.3458 133.506 96.5915 143.333 103.085 151.627C109.578 159.92 118.1 166.398 127.828 170.437V184.641H66.2812C65.0256 184.641 63.8214 185.139 62.9335 186.027C62.0457 186.915 61.5469 188.119 61.5469 189.375V212.431C39.7214 237.429 39.3427 260.675 33.1406 297.65C32.9397 298.906 33.2458 300.19 33.9917 301.22C34.7375 302.25 35.8619 302.941 37.1175 303.142C38.3731 303.343 39.6571 303.037 40.6871 302.291C41.717 301.545 42.4085 300.421 42.6094 299.165C49.0481 260.58 49.3795 247.087 61.5469 228.15V255.656C58.6069 257.861 56.2207 260.72 54.5772 264.007C52.9337 267.294 52.0781 270.919 52.0781 274.594V298.266C52.0781 299.521 52.5769 300.725 53.4648 301.613C54.3527 302.501 55.5569 303 56.8125 303C58.0681 303 59.2723 302.501 60.1602 301.613C61.0481 300.725 61.5469 299.521 61.5469 298.266V274.594C61.5469 270.827 63.0433 267.214 65.7069 264.551C68.3705 261.887 71.9831 260.391 75.75 260.391C79.5169 260.391 83.1295 261.887 85.7931 264.551C88.4567 267.214 89.9531 270.827 89.9531 274.594V284.062C89.9531 286.574 88.9555 288.982 87.1798 290.758C85.404 292.534 82.9956 293.531 80.4844 293.531H75.75C74.4944 293.531 73.2902 294.03 72.4023 294.918C71.5144 295.806 71.0156 297.01 71.0156 298.266C71.0156 299.521 71.5144 300.725 72.4023 301.613C73.2902 302.501 74.4944 303 75.75 303H222.516C223.771 303 224.975 302.501 225.863 301.613C226.751 300.725 227.25 299.521 227.25 298.266C227.25 297.01 226.751 295.806 225.863 294.918C224.975 294.03 223.771 293.531 222.516 293.531C220.004 293.531 217.596 292.534 215.82 290.758C214.044 288.982 213.047 286.574 213.047 284.062V274.594C213.047 270.827 214.543 267.214 217.207 264.551C219.87 261.887 223.483 260.391 227.25 260.391C231.017 260.391 234.63 261.887 237.293 264.551C239.957 267.214 241.453 270.827 241.453 274.594V298.266C241.453 299.521 241.952 300.725 242.84 301.613C243.728 302.501 244.932 303 246.187 303C247.443 303 248.647 302.501 249.535 301.613C250.423 300.725 250.922 299.521 250.922 298.266C250.922 276.582 253.431 264.841 241.453 255.656V228.055C253.857 246.992 254.141 261.195 260.391 299.07C260.592 300.326 261.283 301.45 262.313 302.196C263.343 302.942 264.627 303.248 265.882 303.047C267.138 302.846 268.263 302.155 269.008 301.125C269.754 300.095 270.06 298.811 269.859 297.555C263.657 260.391 262.947 237.05 241.453 212.431ZM222.516 104.156C222.516 106.667 221.518 109.076 219.742 110.852C217.967 112.627 215.558 113.625 213.047 113.625C213.047 94.4508 213.047 95.3976 213.047 94.6875C215.558 94.6875 217.967 95.6851 219.742 97.4608C221.518 99.2365 222.516 101.645 222.516 104.156ZM141.463 9.46872C163.999 9.46872 175.645 7.19622 186.014 17.5645C186.663 18.2533 187.504 18.7315 188.428 18.9375C194.015 20.0596 199.043 23.0742 202.666 27.4728C206.288 31.8714 208.282 37.3847 208.312 43.0828C208.576 52.3997 208.339 61.7241 207.602 71.0156C204.208 62.6108 199.152 54.9779 192.736 48.5747C191.96 47.8065 190.942 47.3303 189.855 47.2267C188.768 47.1232 187.678 47.3987 186.771 48.0065C169.869 59.4164 158.081 56.8125 108.891 56.8125C104.44 56.8125 104.393 59.9845 96.3445 78.78C95.249 71.3179 94.6952 63.7864 94.6875 56.2443C94.7 43.8425 99.6322 31.9522 108.402 23.1828C117.171 14.4134 129.061 9.48125 141.463 9.46872ZM80.4844 104.156C80.4844 101.645 81.482 99.2365 83.2577 97.4608C85.0334 95.6851 87.4418 94.6875 89.9531 94.6875C89.9531 95.3029 89.9531 93.5512 89.9531 113.625C87.4418 113.625 85.0334 112.627 83.2577 110.852C81.482 109.076 80.4844 106.667 80.4844 104.156ZM99.4219 113.625V95.6343L112.015 66.2812C158.033 66.2812 170.39 68.6011 188.57 58.1381C200.169 71.347 201.637 83.5143 203.578 95.0662V113.625C203.578 127.437 198.091 140.683 188.325 150.45C178.558 160.216 165.312 165.703 151.5 165.703C137.688 165.703 124.442 160.216 114.675 150.45C104.909 140.683 99.4219 127.437 99.4219 113.625ZM137.297 173.515C146.643 175.67 156.357 175.67 165.703 173.515V184.641H137.297V173.515ZM71.0156 251.395V194.109H146.766V293.531H96.7706C100.132 287.803 99.4219 284.062 99.4219 274.594C99.4226 271.083 98.6425 267.616 97.138 264.444C95.6335 261.272 93.4424 258.475 90.7233 256.254C88.0042 254.034 84.8252 252.446 81.4167 251.605C78.0081 250.765 74.4553 250.693 71.0156 251.395ZM203.578 274.594C203.578 284.062 202.963 287.945 206.229 293.531H156.234V194.109H231.984V251.395C228.545 250.693 224.992 250.765 221.583 251.605C218.175 252.446 214.996 254.034 212.277 256.254C209.558 258.475 207.366 261.272 205.862 264.444C204.358 267.616 203.577 271.083 203.578 274.594Z" fill="#2563EB"/>
<path d="M164.898 139.238C164.458 138.794 163.935 138.442 163.358 138.202C162.781 137.961 162.162 137.838 161.537 137.838C160.912 137.838 160.293 137.961 159.716 138.202C159.139 138.442 158.616 138.794 158.175 139.238C156.401 141.002 154.002 141.991 151.5 141.991C148.998 141.991 146.599 141.002 144.825 139.238C143.933 138.346 142.724 137.846 141.463 137.846C140.202 137.846 138.993 138.346 138.102 139.238C137.21 140.129 136.709 141.339 136.709 142.599C136.709 143.86 137.21 145.069 138.102 145.961C150.837 158.649 171.953 146.34 164.898 139.238Z" fill="#2563EB"/>
<path d="M118.359 94.6875V99.4219C118.359 100.678 118.858 101.882 119.746 102.77C120.634 103.657 121.838 104.156 123.094 104.156C124.349 104.156 125.554 103.657 126.441 102.77C127.329 101.882 127.828 100.678 127.828 99.4219V94.6875C127.828 93.4319 127.329 92.2277 126.441 91.3398C125.554 90.4519 124.349 89.9531 123.094 89.9531C121.838 89.9531 120.634 90.4519 119.746 91.3398C118.858 92.2277 118.359 93.4319 118.359 94.6875Z" fill="#2563EB"/>
<path d="M184.641 99.4219V94.6875C184.641 93.4319 184.142 92.2277 183.254 91.3398C182.366 90.4519 181.162 89.9531 179.906 89.9531C178.651 89.9531 177.446 90.4519 176.559 91.3398C175.671 92.2277 175.172 93.4319 175.172 94.6875V99.4219C175.172 100.678 175.671 101.882 176.559 102.77C177.446 103.657 178.651 104.156 179.906 104.156C181.162 104.156 182.366 103.657 183.254 102.77C184.142 101.882 184.641 100.678 184.641 99.4219Z" fill="#2563EB"/>
<path d="M217.781 208.312H170.438C169.182 208.312 167.978 208.811 167.09 209.699C166.202 210.587 165.703 211.791 165.703 213.047V236.719C165.703 237.974 166.202 239.179 167.09 240.066C167.978 240.954 169.182 241.453 170.438 241.453H217.781C219.037 241.453 220.241 240.954 221.129 240.066C222.017 239.179 222.516 237.974 222.516 236.719V213.047C222.516 211.791 222.017 210.587 221.129 209.699C220.241 208.811 219.037 208.312 217.781 208.312ZM213.047 231.984H175.172V217.781H213.047V231.984Z" fill="#2563EB"/>
</g>
<defs>
<clipPath id="clip0_8_1202">
<rect width="303" height="303" fill="white"/>
</clipPath>
</defs>
</svg>
