<svg width="374" height="343" viewBox="0 0 374 343" fill="none" xmlns="http://www.w3.org/2000/svg">
<path d="M356.469 289.406H350.625V96.4688C350.625 90.7832 348.162 85.3305 343.779 81.3102C339.395 77.2898 333.449 75.0312 327.25 75.0312H298.031V5.35938C298.031 3.93798 297.416 2.5748 296.32 1.56972C295.224 0.564647 293.737 0 292.188 0L81.8125 0C80.2626 0 78.7763 0.564647 77.6803 1.56972C76.5844 2.5748 75.9688 3.93798 75.9688 5.35938V75.0312H46.75C40.5506 75.0312 34.605 77.2898 30.2214 81.3102C25.8377 85.3305 23.375 90.7832 23.375 96.4688V289.406H17.5312C12.8817 289.406 8.42253 291.1 5.13478 294.115C1.84704 297.131 0 301.22 0 305.484L0 316.203C0 323.31 3.0784 330.126 8.55797 335.151C14.0376 340.177 21.4695 343 29.2188 343H344.781C352.531 343 359.962 340.177 365.442 335.151C370.922 330.126 374 323.31 374 316.203V305.484C374 301.22 372.153 297.131 368.865 294.115C365.577 291.1 361.118 289.406 356.469 289.406ZM58.4375 267.969V107.188H75.9688V267.969H58.4375ZM87.6562 42.875H286.344V267.969H87.6562V42.875ZM298.031 107.188H315.562V267.969H298.031V107.188ZM87.6562 10.7188H286.344V32.1562H87.6562V10.7188ZM35.0625 96.4688C35.0625 93.626 36.2939 90.8996 38.4857 88.8895C40.6775 86.8793 43.6503 85.75 46.75 85.75H75.9688V96.4688H52.5938C51.0439 96.4688 49.5575 97.0334 48.4616 98.0385C47.3657 99.0435 46.75 100.407 46.75 101.828V273.328C46.75 274.75 47.3657 276.113 48.4616 277.118C49.5575 278.123 51.0439 278.688 52.5938 278.688H321.406C322.956 278.688 324.443 278.123 325.538 277.118C326.634 276.113 327.25 274.75 327.25 273.328V101.828C327.25 100.407 326.634 99.0435 325.538 98.0385C324.443 97.0334 322.956 96.4688 321.406 96.4688H298.031V85.75H327.25C330.35 85.75 333.322 86.8793 335.514 88.8895C337.706 90.8996 338.938 93.626 338.938 96.4688V289.406H35.0625V96.4688ZM234.51 300.125L230.594 305.484H143.406L139.49 300.125H234.51ZM362.312 316.203C362.312 320.467 360.465 324.557 357.178 327.572C353.89 330.587 349.431 332.281 344.781 332.281H29.2188C24.5692 332.281 20.11 330.587 16.8223 327.572C13.5345 324.557 11.6875 320.467 11.6875 316.203V305.484C11.6875 304.063 12.3032 302.7 13.3991 301.695C14.495 300.69 15.9814 300.125 17.5312 300.125H125.407L135.4 313.791C137.854 317.221 133.004 316.203 233.75 316.203C237.782 316.203 238.074 314.595 248.593 300.125H356.469C358.019 300.125 359.505 300.69 360.601 301.695C361.697 302.7 362.312 304.063 362.312 305.484V316.203Z" fill="#2563EB"/>
<path d="M105.188 16.0781C103.638 16.0781 102.151 16.6428 101.055 17.6478C99.9594 18.6529 99.3438 20.0161 99.3438 21.4375C99.3438 22.8589 99.9594 24.2221 101.055 25.2271C102.151 26.2322 103.638 26.7969 105.188 26.7969C106.737 26.7969 108.224 26.2322 109.32 25.2271C110.416 24.2221 111.031 22.8589 111.031 21.4375C111.031 20.0161 110.416 18.6529 109.32 17.6478C108.224 16.6428 106.737 16.0781 105.188 16.0781Z" fill="#2563EB"/>
<path d="M128.562 16.0781C127.013 16.0781 125.526 16.6428 124.43 17.6478C123.334 18.6529 122.719 20.0161 122.719 21.4375C122.719 22.8589 123.334 24.2221 124.43 25.2271C125.526 26.2322 127.013 26.7969 128.562 26.7969C130.112 26.7969 131.599 26.2322 132.695 25.2271C133.791 24.2221 134.406 22.8589 134.406 21.4375C134.406 20.0161 133.791 18.6529 132.695 17.6478C131.599 16.6428 130.112 16.0781 128.562 16.0781Z" fill="#2563EB"/>
<path d="M151.938 16.0781C150.388 16.0781 148.901 16.6428 147.805 17.6478C146.709 18.6529 146.094 20.0161 146.094 21.4375C146.094 22.8589 146.709 24.2221 147.805 25.2271C148.901 26.2322 150.388 26.7969 151.938 26.7969C153.487 26.7969 154.974 26.2322 156.07 25.2271C157.166 24.2221 157.781 22.8589 157.781 21.4375C157.781 20.0161 157.166 18.6529 156.07 17.6478C154.974 16.6428 153.487 16.0781 151.938 16.0781Z" fill="#2563EB"/>
<path d="M257.125 166.141H239.594V112.547C239.594 111.125 238.978 109.762 237.882 108.757C236.786 107.752 235.3 107.188 233.75 107.188C232.2 107.188 230.714 107.752 229.618 108.757C228.522 109.762 227.906 111.125 227.906 112.547V166.141H210.375V139.344C210.375 137.922 209.759 136.559 208.663 135.554C207.567 134.549 206.081 133.984 204.531 133.984C202.981 133.984 201.495 134.549 200.399 135.554C199.303 136.559 198.688 137.922 198.688 139.344V166.141H181.156V123.266C181.156 121.844 180.541 120.481 179.445 119.476C178.349 118.471 176.862 117.906 175.312 117.906C173.763 117.906 172.276 118.471 171.18 119.476C170.084 120.481 169.469 121.844 169.469 123.266V166.141H151.938V150.063C151.938 148.641 151.322 147.278 150.226 146.273C149.13 145.268 147.644 144.703 146.094 144.703C144.544 144.703 143.058 145.268 141.962 146.273C140.866 147.278 140.25 148.641 140.25 150.063V166.141H122.719V146.9L175.312 98.6661L194.538 116.352C195.082 116.854 195.728 117.253 196.44 117.525C197.152 117.797 197.916 117.937 198.688 117.937C199.459 117.937 200.223 117.797 200.935 117.525C201.647 117.253 202.293 116.854 202.837 116.352L245.438 77.2286V85.75C245.438 87.1714 246.053 88.5346 247.149 89.5397C248.245 90.5447 249.731 91.1094 251.281 91.1094C252.831 91.1094 254.317 90.5447 255.413 89.5397C256.509 88.5346 257.125 87.1714 257.125 85.75C257.125 53.9153 262.209 58.9531 227.906 58.9531C226.356 58.9531 224.87 59.5178 223.774 60.5229C222.678 61.5279 222.062 62.8911 222.062 64.3125C222.062 65.7339 222.678 67.0971 223.774 68.1021C224.87 69.1072 226.356 69.6719 227.906 69.6719H237.198L198.688 104.99L179.462 87.3042C178.918 86.8019 178.272 86.4032 177.56 86.1311C176.848 85.859 176.084 85.7189 175.312 85.7189C174.541 85.7189 173.777 85.859 173.065 86.1311C172.353 86.4032 171.707 86.8019 171.163 87.3042L122.719 131.787V64.3125C122.719 62.8911 122.103 61.5279 121.007 60.5229C119.911 59.5178 118.425 58.9531 116.875 58.9531C115.325 58.9531 113.839 59.5178 112.743 60.5229C111.647 61.5279 111.031 62.8911 111.031 64.3125V171.5C111.031 172.921 111.647 174.285 112.743 175.29C113.839 176.295 115.325 176.859 116.875 176.859H257.125C258.675 176.859 260.161 176.295 261.257 175.29C262.353 174.285 262.969 172.921 262.969 171.5C262.969 170.079 262.353 168.715 261.257 167.71C260.161 166.705 258.675 166.141 257.125 166.141Z" fill="#2563EB"/>
<path d="M257.125 198.297H140.25C138.7 198.297 137.214 198.862 136.118 199.867C135.022 200.872 134.406 202.235 134.406 203.656C134.406 205.078 135.022 206.441 136.118 207.446C137.214 208.451 138.7 209.016 140.25 209.016H257.125C258.675 209.016 260.161 208.451 261.257 207.446C262.353 206.441 262.969 205.078 262.969 203.656C262.969 202.235 262.353 200.872 261.257 199.867C260.161 198.862 258.675 198.297 257.125 198.297Z" fill="#2563EB"/>
<path d="M257.125 219.734H140.25C138.7 219.734 137.214 220.299 136.118 221.304C135.022 222.309 134.406 223.672 134.406 225.094C134.406 226.515 135.022 227.878 136.118 228.883C137.214 229.888 138.7 230.453 140.25 230.453H257.125C258.675 230.453 260.161 229.888 261.257 228.883C262.353 227.878 262.969 226.515 262.969 225.094C262.969 223.672 262.353 222.309 261.257 221.304C260.161 220.299 258.675 219.734 257.125 219.734Z" fill="#2563EB"/>
<path d="M257.125 241.172H140.25C138.7 241.172 137.214 241.737 136.118 242.742C135.022 243.747 134.406 245.11 134.406 246.531C134.406 247.953 135.022 249.316 136.118 250.321C137.214 251.326 138.7 251.891 140.25 251.891H257.125C258.675 251.891 260.161 251.326 261.257 250.321C262.353 249.316 262.969 247.953 262.969 246.531C262.969 245.11 262.353 243.747 261.257 242.742C260.161 241.737 258.675 241.172 257.125 241.172Z" fill="#2563EB"/>
<path d="M116.875 198.297C115.325 198.297 113.839 198.862 112.743 199.867C111.647 200.872 111.031 202.235 111.031 203.656C111.031 205.078 111.647 206.441 112.743 207.446C113.839 208.451 115.325 209.016 116.875 209.016C118.425 209.016 119.911 208.451 121.007 207.446C122.103 206.441 122.719 205.078 122.719 203.656C122.719 202.235 122.103 200.872 121.007 199.867C119.911 198.862 118.425 198.297 116.875 198.297Z" fill="#2563EB"/>
<path d="M116.875 219.734C115.325 219.734 113.839 220.299 112.743 221.304C111.647 222.309 111.031 223.672 111.031 225.094C111.031 226.515 111.647 227.878 112.743 228.883C113.839 229.888 115.325 230.453 116.875 230.453C118.425 230.453 119.911 229.888 121.007 228.883C122.103 227.878 122.719 226.515 122.719 225.094C122.719 223.672 122.103 222.309 121.007 221.304C119.911 220.299 118.425 219.734 116.875 219.734Z" fill="#2563EB"/>
<path d="M116.875 241.172C115.325 241.172 113.839 241.737 112.743 242.742C111.647 243.747 111.031 245.11 111.031 246.531C111.031 247.953 111.647 249.316 112.743 250.321C113.839 251.326 115.325 251.891 116.875 251.891C118.425 251.891 119.911 251.326 121.007 250.321C122.103 249.316 122.719 247.953 122.719 246.531C122.719 245.11 122.103 243.747 121.007 242.742C119.911 241.737 118.425 241.172 116.875 241.172Z" fill="#2563EB"/>
</svg>
