<svg width="622" height="514" viewBox="0 0 622 514" fill="none" xmlns="http://www.w3.org/2000/svg">
<path d="M485.46 74.3439H334.031C330.612 74.3439 327.84 77.1151 327.84 80.5331V187.347C327.84 190.764 330.612 193.535 334.031 193.535H485.46C488.874 193.535 491.646 190.764 491.646 187.347V80.5331C491.646 77.1151 488.874 74.3439 485.46 74.3439Z" fill="#B4E800"/>
<path d="M349.592 95.8208H345.108L344.337 98.0081H342.504L346.341 87.287H348.374L352.211 98.0081H350.362L349.592 95.8208ZM349.098 94.3883L347.357 89.4126L345.601 94.3883H349.098ZM353.293 93.7261C353.293 92.8738 353.468 92.1189 353.818 91.4616C354.177 90.8043 354.66 90.2958 355.266 89.9366C355.882 89.5669 356.565 89.3823 357.315 89.3823C357.87 89.3823 358.414 89.5052 358.948 89.752C359.492 89.9878 359.924 90.3063 360.242 90.7068V86.6093H362.014V98.0081H360.242V96.7293C359.955 97.1404 359.554 97.4792 359.04 97.7465C358.537 98.0131 357.957 98.1464 357.299 98.1464C356.56 98.1464 355.882 97.9619 355.266 97.5922C354.66 97.212 354.177 96.6886 353.818 96.0208C353.468 95.3431 353.293 94.5784 353.293 93.7261ZM360.242 93.757C360.242 93.1712 360.119 92.6633 359.873 92.2319C359.636 91.8005 359.323 91.4715 358.933 91.2456C358.542 91.0197 358.121 90.9068 357.669 90.9068C357.217 90.9068 356.796 91.0197 356.406 91.2456C356.015 91.4616 355.697 91.7851 355.45 92.2165C355.215 92.6374 355.096 93.1404 355.096 93.7261C355.096 94.3112 355.215 94.8247 355.45 95.266C355.697 95.7079 356.015 96.0467 356.406 96.2831C356.806 96.509 357.228 96.622 357.669 96.622C358.121 96.622 358.542 96.509 358.933 96.2831C359.323 96.0572 359.636 95.7283 359.873 95.2969C360.119 94.8556 360.242 94.3421 360.242 93.757ZM367.403 98.1464C366.735 98.1464 366.135 98.0285 365.601 97.7921C365.076 97.5459 364.66 97.2175 364.352 96.8065C364.044 96.3856 363.88 95.9184 363.859 95.4049H365.677C365.708 95.7641 365.878 96.0671 366.186 96.3134C366.504 96.5497 366.899 96.6682 367.372 96.6682C367.865 96.6682 368.245 96.5757 368.513 96.3905C368.79 96.1955 368.928 95.9492 368.928 95.6511C368.928 95.3333 368.774 95.0969 368.466 94.9426C368.168 94.7889 367.691 94.6192 367.033 94.4346C366.396 94.26 365.878 94.0902 365.477 93.9261C365.076 93.7619 364.727 93.5101 364.429 93.1713C364.142 92.8324 363.998 92.3856 363.998 91.8313C363.998 91.3796 364.131 90.9685 364.398 90.5988C364.666 90.2193 365.045 89.9211 365.539 89.7057C366.042 89.4897 366.617 89.3823 367.264 89.3823C368.23 89.3823 369.005 89.6286 369.591 90.1217C370.187 90.6044 370.505 91.2666 370.546 92.1085H368.79C368.759 91.7283 368.605 91.4259 368.327 91.2C368.05 90.9741 367.675 90.8605 367.203 90.8605C366.741 90.8605 366.386 90.9482 366.139 91.1228C365.893 91.2975 365.77 91.5283 365.77 91.8159C365.77 92.0418 365.852 92.2319 366.016 92.3856C366.181 92.5399 366.381 92.6633 366.617 92.7553C366.854 92.8374 367.203 92.9454 367.665 93.0787C368.281 93.2435 368.785 93.4126 369.175 93.5872C369.576 93.7514 369.92 93.9983 370.207 94.3266C370.495 94.655 370.644 95.0919 370.654 95.6357C370.654 96.1183 370.52 96.5497 370.254 96.9299C369.986 97.3095 369.607 97.6076 369.113 97.823C368.631 98.039 368.061 98.1464 367.403 98.1464Z" fill="white"/>
<path d="M440.939 141.091C440.939 147.259 439.109 153.288 435.682 158.417C432.254 163.545 427.382 167.543 421.682 169.903C415.982 172.264 409.709 172.881 403.658 171.678C397.607 170.475 392.048 167.505 387.685 163.143C383.323 158.781 380.352 153.225 379.148 147.175C377.945 141.125 378.562 134.855 380.923 129.156C383.284 123.458 387.283 118.587 392.413 115.16C397.543 111.734 403.574 109.904 409.744 109.904" stroke="white" stroke-width="17.1948" stroke-miterlimit="10"/>
<path d="M415.554 103.941C423.828 103.941 431.762 107.227 437.613 113.076C443.463 118.924 446.75 126.857 446.75 135.128" stroke="#1C85E8" stroke-width="17.1948" stroke-miterlimit="10"/>
<path d="M342.21 171.072H360.469" stroke="white" stroke-width="6.72632" stroke-miterlimit="10" stroke-linecap="round"/>
<path opacity="0.4" d="M342.21 181.291H379.944" stroke="white" stroke-width="6.72632" stroke-miterlimit="10" stroke-linecap="round"/>
<path d="M446.75 171.175H465.009" stroke="white" stroke-width="6.72632" stroke-miterlimit="10" stroke-linecap="round"/>
<path opacity="0.4" d="M446.75 181.395H484.484" stroke="white" stroke-width="6.72632" stroke-miterlimit="10" stroke-linecap="round"/>
<path d="M58.5275 64.4097H278.351C284.19 64.4097 289.789 66.7285 293.917 70.8556C298.046 74.9827 300.365 80.5806 300.365 86.4174V99.5894H36.5137V86.4174C36.5137 80.5806 38.8331 74.9827 42.9614 70.8556C47.0897 66.7285 52.6891 64.4097 58.5275 64.4097Z" fill="#1C85E8"/>
<path d="M36.5137 99.5894H300.365V348.365C300.365 353.002 298.523 357.449 295.244 360.728C291.964 364.006 287.515 365.848 282.877 365.848H54.0017C49.3634 365.848 44.9153 364.006 41.6359 360.728C38.3559 357.449 36.5137 353.002 36.5137 348.365V99.5894Z" fill="url(#paint0_linear_20_105)"/>
<path opacity="0.6" d="M171.066 318.422C221.592 318.422 262.551 277.475 262.551 226.963C262.551 176.452 221.592 135.504 171.066 135.504C120.54 135.504 79.5815 176.452 79.5815 226.963C79.5815 277.475 120.54 318.422 171.066 318.422Z" stroke="white" stroke-width="30" stroke-miterlimit="10"/>
<path d="M60.8822 88.2714C63.8647 88.2714 66.2823 85.8545 66.2823 82.8729C66.2823 79.8919 63.8647 77.4749 60.8822 77.4749C57.8998 77.4749 55.4822 79.8919 55.4822 82.8729C55.4822 85.8545 57.8998 88.2714 60.8822 88.2714Z" fill="white"/>
<path d="M82.6923 88.2714C85.6748 88.2714 88.0923 85.8545 88.0923 82.8729C88.0923 79.8919 85.6748 77.4749 82.6923 77.4749C79.7098 77.4749 77.2922 79.8919 77.2922 82.8729C77.2922 85.8545 79.7098 88.2714 82.6923 88.2714Z" fill="white"/>
<path d="M103.185 88.2714C106.167 88.2714 108.584 85.8545 108.584 82.8729C108.584 79.8919 106.167 77.4749 103.185 77.4749C100.202 77.4749 97.7849 79.8919 97.7849 82.8729C97.7849 85.8545 100.202 88.2714 103.185 88.2714Z" fill="white"/>
<path d="M349.855 211.796H569.68C575.514 211.796 581.114 214.115 585.244 218.242C589.374 222.369 591.689 227.967 591.689 233.804V246.976H327.84V233.804C327.84 227.967 330.16 222.369 334.288 218.242C338.417 214.115 344.016 211.796 349.855 211.796Z" fill="#1C85E8"/>
<path d="M327.84 246.976H591.689V495.752C591.689 500.388 589.85 504.835 586.571 508.114C583.293 511.392 578.842 513.235 574.206 513.235H345.328C340.691 513.235 336.242 511.392 332.963 508.114C329.683 504.835 327.84 500.388 327.84 495.752V246.976Z" fill="url(#paint1_linear_20_105)"/>
<path opacity="0.6" d="M473.474 471.564C524.002 471.564 564.958 430.617 564.958 380.105C564.958 329.594 524.002 288.646 473.474 288.646C422.948 288.646 381.989 329.594 381.989 380.105C381.989 430.617 422.948 471.564 473.474 471.564Z" stroke="white" stroke-width="30" stroke-miterlimit="10"/>
<path d="M352.209 235.658C355.191 235.658 357.609 233.241 357.609 230.259C357.609 227.278 355.191 224.861 352.209 224.861C349.227 224.861 346.809 227.278 346.809 230.259C346.809 233.241 349.227 235.658 352.209 235.658Z" fill="white"/>
<path d="M374.019 235.658C377.001 235.658 379.419 233.241 379.419 230.259C379.419 227.278 377.001 224.861 374.019 224.861C371.037 224.861 368.619 227.278 368.619 230.259C368.619 233.241 371.037 235.658 374.019 235.658Z" fill="white"/>
<path d="M394.511 235.658C397.494 235.658 399.912 233.241 399.912 230.259C399.912 227.278 397.494 224.861 394.511 224.861C391.53 224.861 389.112 227.278 389.112 230.259C389.112 233.241 391.53 235.658 394.511 235.658Z" fill="white"/>
<path d="M433.124 403.122L420.113 513.296H472.388L502.221 403.776L433.124 403.122Z" fill="#1F2D49"/>
<path d="M474.028 507.274L467.88 473.451L480.069 436.524H498.955L474.028 507.274Z" fill="#0D1B33"/>
<path d="M529.959 403.776C529.589 410.388 529.589 417.016 529.959 423.628C531.484 445.001 527.126 505.083 527.163 513.296H480.748C480.553 501.918 477.663 404.244 477.663 404.244L529.959 403.776Z" fill="#1F2D49"/>
<path d="M432.134 411.017L529.959 423.628V403.776L433.124 403.122L432.134 411.017Z" fill="#0D1B33"/>
<path d="M450.675 291.384C453.406 277.908 446.985 278.255 444.848 276.113C444.848 276.113 436.832 269.504 430.723 275.664C424.257 282.181 387.193 332.801 387.193 332.801L410.385 354.124L414.743 348.924L426.035 335.461L438.113 321.071L439.613 319.433L455.906 300.984C455.906 300.984 449.132 298.478 450.675 291.384Z" fill="#60A5FA"/>
<path d="M460.375 293.68C463.501 284.349 458.469 274.252 449.135 271.126C439.802 268.001 429.701 273.031 426.575 282.363C423.449 291.693 428.481 301.791 437.814 304.917C447.148 308.041 457.248 303.011 460.375 293.68Z" fill="#60A5FA"/>
<path d="M439.399 319.361C439.867 316.545 440.803 310.912 441.808 305.778L447.16 280.93C447.16 280.93 432.789 302.163 426.169 316.953C421.266 328.036 415.578 339.332 414.637 348.888L425.928 335.425L438.005 321.035L439.399 319.361Z" fill="#1C85E8"/>
<path d="M392.827 267.185C391.62 255.79 394.721 255.237 394.764 249.059C394.786 243.021 403.905 231.843 399.555 232.069C395.206 232.295 392.152 236.451 392.152 236.451C391.507 231.034 392.597 222.021 387.053 218.62C381.508 215.219 380.203 216.865 375.688 218.218C363.636 221.918 370.363 237.862 370.487 242.914C370.596 246.094 376.191 257.989 376.445 260.183L378.226 268.643L392.827 267.185Z" fill="#FFCCB3"/>
<path d="M385.958 234.536L384.31 218.179L385.958 234.536Z" fill="#E56441"/>
<path d="M385.958 234.536L384.31 218.179" stroke="#E56441" stroke-width="1.20133" stroke-linecap="round"/>
<path d="M380.32 234.718L377.639 219.005L380.32 234.718Z" fill="#E56441"/>
<path d="M380.32 234.718L377.639 219.005" stroke="#E56441" stroke-width="1.20133" stroke-linecap="round"/>
<path d="M373.697 234.754L372.342 225.351L373.697 234.754Z" fill="#E56441"/>
<path d="M373.697 234.754L372.342 225.351" stroke="#E56441" stroke-width="1.20133" stroke-linecap="round"/>
<path d="M382.833 247.024C384.802 242.422 389.912 237.992 389.912 237.992L382.833 247.024Z" fill="#E56441"/>
<path d="M382.833 247.024C384.802 242.422 389.912 237.992 389.912 237.992" stroke="#E56441" stroke-width="1.20133" stroke-linecap="round"/>
<path d="M413.943 337.345L394.659 261.236C394.523 260.779 394.225 260.389 393.819 260.14C393.413 259.892 392.93 259.801 392.462 259.888L377.919 262.659C377.224 262.799 376.607 263.193 376.186 263.763C375.765 264.333 375.572 265.039 375.643 265.744L383.655 344.875L413.943 337.345Z" fill="#60A5FA"/>
<path d="M399.232 358.614C407.953 358.614 415.024 351.545 415.024 342.826C415.024 334.106 407.953 327.038 399.232 327.038C390.51 327.038 383.44 334.106 383.44 342.826C383.44 351.545 390.51 358.614 399.232 358.614Z" fill="#60A5FA"/>
<path d="M462.982 263.22C462.982 263.22 444.929 268.545 440.386 270.445C435.843 272.344 435.54 279.944 435.238 285.326C435.025 289.097 434.312 346.146 434.592 382.013C434.652 389.675 433.223 394.537 432.305 398.795C432.053 399.93 431.916 401.087 431.898 402.249C431.892 402.657 431.966 403.063 432.117 403.442C432.269 403.822 432.493 404.168 432.779 404.46C433.064 404.753 433.404 404.986 433.78 405.147C434.155 405.308 434.559 405.392 434.967 405.397L527.391 406.261C527.391 406.261 531.49 406.856 530.503 402.181C529.521 397.068 528.984 391.879 528.897 386.674C527.971 349.422 527.799 287.034 527.397 284.081C526.792 279.648 531.552 275.831 526.391 273.599L501.468 264.535L462.982 263.22Z" fill="#60A5FA"/>
<path d="M509.148 304.399C509.148 304.399 510.549 356.033 510.253 373.244C510.074 383.969 497.807 388.512 497.77 394.722C497.752 398.395 507.685 396.11 512.068 394.682C521.927 391.47 528.416 395.833 528.416 395.833L525.786 301.741L509.148 304.399Z" fill="#1C85E8"/>
<path d="M467.154 244.972L472.665 273.749L474.612 275.809C474.612 275.809 473.841 276.731 476.055 274.511C481.277 269.277 495.029 262.898 494.461 260.843C493.646 257.898 491.282 239.553 491.282 239.553L467.154 244.972Z" fill="#FFCCB3"/>
<path d="M466.929 246.884H481.448L465.499 271.65L466.929 246.884Z" fill="#FF967C"/>
<path d="M508.975 234.354C513.216 223.849 500.258 222.516 498.017 222.378C495.776 222.239 497.276 205.244 497.276 205.244C497.276 205.244 474.375 193.71 467.908 196.459C467.908 196.459 458.623 215.672 454.235 228.442C449.848 241.212 451.743 248.084 456.351 249.943C462.463 253.028 470.491 254.008 476.23 252.589C486.454 250.062 492.942 241.904 492.942 241.904C493.115 241.88 493.214 241.868 493.214 241.868C493.214 241.868 504.975 244.275 508.975 234.354Z" fill="#FFCCB3"/>
<path d="M502.82 243.586C511.087 237.818 518.038 231.37 519.353 223.186C522.008 206.696 512.753 202.71 512.753 202.71C518.909 191.026 504.87 184.714 497.628 182.358C473.694 174.571 459.101 183.021 458.082 192.28C457.65 196.158 458.273 199.792 460.239 202.773C460.172 205.631 460.468 208.485 461.12 211.269L465.077 203.949C465.851 204.943 466.868 205.721 468.031 206.209C481.031 212.401 494.368 205.536 494.368 205.536C489.17 211.542 489.133 224.839 489.467 227.616C489.948 231.621 492.424 228.695 492.424 228.695C494.862 224.759 503.925 221.888 506.296 230.052C508.148 236.415 491.455 242.676 491.455 242.676L493.128 252.59C496.239 253.226 495.776 249.939 496.603 251.036C497.431 252.134 499.184 252.84 499.523 249.473C499.863 246.106 502.826 243.582 502.826 243.582L502.82 243.586Z" fill="#BC775C"/>
<path d="M476.925 224.745C477.673 223.298 477.511 221.73 476.564 221.24C475.617 220.75 474.243 221.525 473.494 222.97C472.747 224.416 472.908 225.984 473.855 226.474C474.803 226.965 476.177 226.19 476.925 224.745Z" fill="#080B09"/>
<path d="M463.915 217.91C464.663 216.465 464.501 214.896 463.554 214.406C462.607 213.916 461.232 214.691 460.484 216.137C459.736 217.582 459.898 219.151 460.845 219.641C461.793 220.13 463.167 219.356 463.915 217.91Z" fill="#080B09"/>
<path d="M465.558 222.723C465.558 222.723 466.388 226.495 463.889 225.878C461.525 225.208 459.767 226.229 461.621 228.89" stroke="#E56441" stroke-width="1.20133" stroke-linecap="round"/>
<path d="M461.179 232.017L461.188 232.022L461.198 232.025C462.642 232.526 465.527 233.527 467.435 234.225L467.438 234.226C467.5 234.248 467.555 234.286 467.596 234.337C467.638 234.388 467.664 234.449 467.674 234.515C467.683 234.579 467.674 234.646 467.648 234.707C467.623 234.765 467.583 234.816 467.532 234.853C466.973 235.212 466.254 235.625 465.491 235.943C464.722 236.264 463.932 236.478 463.231 236.46C462.542 236.442 461.948 236.201 461.517 235.614C461.075 235.01 460.773 234 460.783 232.379L460.783 232.354L460.779 232.33C460.772 232.279 460.777 232.227 460.796 232.179C460.815 232.13 460.847 232.088 460.888 232.056C460.928 232.025 460.977 232.004 461.028 231.998C461.079 231.991 461.132 231.998 461.179 232.017Z" fill="#E56441" stroke="#E56441"/>
<path d="M483.109 220.98L482.897 221.22C482.618 221.599 482.2 221.852 481.735 221.924C481.271 221.996 480.796 221.881 480.416 221.605L474.002 216.682C473.682 216.457 473.458 216.119 473.375 215.737C473.291 215.354 473.355 214.954 473.553 214.616C473.664 214.404 473.82 214.217 474.009 214.068C474.197 213.92 474.415 213.814 474.649 213.756C474.881 213.698 475.124 213.691 475.361 213.734C475.597 213.776 475.821 213.869 476.019 214.005L482.645 218.687C482.829 218.804 482.988 218.958 483.112 219.137C483.235 219.318 483.321 219.521 483.364 219.735C483.407 219.949 483.407 220.169 483.363 220.383C483.32 220.597 483.233 220.8 483.109 220.98Z" fill="#080B09"/>
<path d="M460.565 207.729L468.526 209.301C468.761 209.35 468.983 209.449 469.176 209.59C469.37 209.732 469.533 209.913 469.651 210.121C469.77 210.33 469.843 210.562 469.866 210.8C469.889 211.039 469.86 211.281 469.783 211.508C469.675 211.884 469.429 212.206 469.094 212.409C468.76 212.613 468.361 212.683 467.976 212.607L459.988 211.356C459.526 211.271 459.116 211.007 458.847 210.62C458.579 210.234 458.474 209.757 458.557 209.294L458.584 208.974C458.629 208.761 458.716 208.558 458.841 208.379C458.967 208.2 459.126 208.048 459.31 207.931C459.496 207.815 459.702 207.737 459.918 207.703C460.133 207.668 460.354 207.677 460.565 207.729Z" fill="#080B09"/>
<path d="M499.511 306.895L440.434 312.01C438.598 312.169 437.239 313.786 437.398 315.62L443.827 389.831C443.986 391.666 445.603 393.025 447.438 392.866L506.512 387.751C508.352 387.592 509.71 385.976 509.549 384.141L503.123 309.929C502.962 308.094 501.345 306.736 499.511 306.895Z" fill="#1C85E8"/>
<path d="M446.603 320.667L470.964 318.558" stroke="white" stroke-width="5.04786" stroke-miterlimit="10" stroke-linecap="round"/>
<path d="M447.541 329.44L458.646 328.479" stroke="white" stroke-width="5.04786" stroke-miterlimit="10" stroke-linecap="round"/>
<path d="M527.823 288.124C518.73 276.74 514.643 282.192 511.445 282.47C511.445 282.47 500.622 284.486 501.474 293.638C502.376 303.322 518.304 367.857 518.304 367.857L551.728 365.345L550.141 356.446L546.881 338.118L543.406 318.521L543.091 316.188L539.183 290.406C539.183 290.406 532.534 294.203 527.823 288.124Z" fill="#60A5FA"/>
<path d="M530.07 307.774C538.96 302.319 541.738 290.693 536.287 281.808C530.83 272.922 519.199 270.141 510.309 275.596C501.425 281.051 498.641 292.677 504.098 301.563C509.555 310.448 521.18 313.229 530.07 307.774Z" fill="#60A5FA"/>
<path d="M450.057 370.536L428.979 372.104L423.997 383.852L425.7 398.354C425.7 398.354 429.327 396.877 429.702 391.747C430.078 386.617 446.856 390.256 451.243 384.621" fill="#FFCCB3"/>
<path d="M530.453 351.533L448.681 366.943C448.189 367.056 447.757 367.347 447.468 367.759C447.178 368.172 447.051 368.677 447.112 369.178L449.091 384.734C449.194 385.478 449.57 386.157 450.146 386.639C450.722 387.121 451.456 387.372 452.207 387.343L536.442 384.049L530.453 351.533Z" fill="#60A5FA"/>
<path d="M535.293 384.174C544.535 384.174 552.024 376.684 552.024 367.446C552.024 358.207 544.535 350.717 535.293 350.717C526.051 350.717 518.557 358.207 518.557 367.446C518.557 376.684 526.051 384.174 535.293 384.174Z" fill="#60A5FA"/>
<path d="M199.828 228.13L228.275 348.223L230.325 365.848H181.817L149.746 288.294L155.671 230.183L199.828 228.13Z" fill="#1F2D49"/>
<path d="M169.713 336.578L176.728 277.242L179.049 359.154L169.713 336.578Z" fill="#0D1B33"/>
<path d="M123.042 227.755C123.042 227.755 109.777 250.031 109.603 268.685C109.342 296.683 107.345 365.848 107.345 365.848H165.871L176.728 277.242L161.047 227.755H123.042Z" fill="#1F2D49"/>
<path d="M199.828 228.13L122.585 228.924L115.078 244.453L201.133 233.641L199.828 228.13Z" fill="#0D1B33"/>
<path d="M288.917 104.269L293.03 95.6517C293.85 93.6656 295.137 91.906 296.781 90.5216C299.292 88.4825 303.038 84.8855 303.959 81.915C305.524 77.1719 312.844 63.6752 302.368 56.7658C298.492 54.2187 299.451 54.8118 293.163 56.3072C286.875 57.8021 287.358 64.5615 285.155 69.5447C285.155 69.5447 283.351 64.7596 279.365 63.274C275.379 61.7885 280.75 75.0666 279.227 80.8873C277.704 86.7074 280.309 88.2035 275.992 98.7926L288.917 104.269Z" fill="#FFCCB3"/>
<path d="M294.29 56.8485L291.741 69.6138L294.29 56.8485Z" fill="#E56441"/>
<path d="M294.29 56.8485L291.741 69.6138" stroke="#E56441" stroke-width="1.20536" stroke-linecap="round"/>
<path d="M301.436 57.4349L297.076 71.392L301.436 57.4349Z" fill="#E56441"/>
<path d="M301.436 57.4349L297.076 71.392" stroke="#E56441" stroke-width="1.20536" stroke-linecap="round"/>
<path d="M307.435 64.6473L303.474 73.2805L307.435 64.6473Z" fill="#E56441"/>
<path d="M307.435 64.6473L303.474 73.2805" stroke="#E56441" stroke-width="1.20536" stroke-linecap="round"/>
<path d="M287.059 71.8875C287.059 71.8875 290.605 77.62 291.315 82.5988L287.059 71.8875Z" fill="#E56441"/>
<path d="M287.059 71.8875C287.059 71.8875 290.605 77.62 291.315 82.5988" stroke="#E56441" stroke-width="1.20536" stroke-linecap="round"/>
<path d="M178.271 116.184C184.513 114.818 193.906 114.045 198.32 116.895L242.277 147.272L276.589 91.2104L291.948 99.7054L260.375 170.267C255.733 182.293 244.161 182.113 237.089 178.012L214.153 166.804L178.271 116.184Z" fill="#5661AE"/>
<path d="M206.187 145.353C206.187 145.353 206.101 141.738 214.628 155.667L237.089 178.012L214.154 166.804C193.184 158.38 199.744 148.689 206.187 145.353Z" fill="#465393"/>
<path d="M177.812 107.786C177.812 107.786 193.383 113.946 195.761 115.847C198.138 117.748 200.396 133.266 204.437 140.634C208.479 148.002 214.392 161.601 205.756 174.093C197.12 186.584 198.038 196.504 198.038 196.504L199.876 227.838L125.451 229.21C124.796 229.23 124.143 229.112 123.537 228.861C122.931 228.611 122.385 228.235 121.935 227.758C121.485 227.281 121.142 226.715 120.928 226.095C120.713 225.475 120.633 224.817 120.692 224.164C121.519 215.029 125.296 202.199 125.593 187.652C125.996 167.936 126.297 102.059 126.297 102.059L158.718 101.042C165.249 102.168 177.812 107.786 177.812 107.786Z" fill="#5661AE"/>
<path d="M205.253 174.834C205.253 174.834 195.101 177.017 186.674 177.455C178.246 177.893 182.626 184.454 190.365 185.26C198.103 186.067 199.603 186.618 199.603 186.618C201.005 182.477 202.902 178.52 205.253 174.834Z" fill="#465393"/>
<path d="M124.37 201.552L121.764 216.656C121.764 216.656 123.483 221.162 131.501 223.926C139.518 226.689 146.707 225.859 151.406 220.608C156.106 215.356 172.482 191.102 172.482 191.102L124.37 201.552Z" fill="#465393"/>
<path d="M139.057 128.988C139.057 128.988 149.903 138.875 150.542 146.21C151.179 153.545 152.655 173.998 166.594 176.037C183.679 178.538 188.151 180.972 180.231 182.886C172.311 184.8 154.335 181.699 154.335 189.902C154.335 195.74 147.351 200.108 143.842 196.918C140.333 193.729 112.383 145.253 139.057 128.988Z" fill="#465393"/>
<path d="M211.192 114.788L202.731 133.075L218.046 139.622L227.192 118.86L211.192 114.788Z" fill="#96BAFD"/>
<path d="M208.422 123.876L223.952 126.599L221.996 130.264L208.422 125.533V123.876Z" fill="#96BAFD"/>
<path d="M217.102 94.9025C213.033 93.3533 208.478 95.3956 206.929 99.4635L205.544 103.1C203.995 107.168 206.037 111.721 210.107 113.27C214.176 114.819 218.731 112.777 220.28 108.709L221.665 105.072C223.214 101.005 221.171 96.451 217.102 94.9025Z" fill="#1C85E8"/>
<path d="M235.945 96.9669C257.554 105.909 279.528 98.3402 279.528 98.3402L258.235 154.065C258.235 154.065 244.078 131.296 225.553 124.257C218.727 121.663 235.945 96.9669 235.945 96.9669Z" fill="#96BAFD"/>
<path d="M276.408 129.11C282.328 113.567 284.174 99.8424 280.531 98.4556C276.888 97.0694 269.137 108.546 263.217 124.089C257.298 139.633 255.452 153.357 259.095 154.743C262.737 156.13 270.489 144.653 276.408 129.11Z" fill="white"/>
<path d="M276.41 129.108C282.329 113.565 284.601 100.003 281.484 98.8167C278.366 97.6298 271.04 109.269 265.121 124.812C259.202 140.355 256.93 153.917 260.047 155.104C263.164 156.29 270.49 144.652 276.41 129.108Z" fill="#1C85E8"/>
<path d="M224.15 92.4775L239.066 98.1544L228.673 125.445L213.757 119.767C212.841 119.418 212.002 118.893 211.289 118.22C210.576 117.547 210.002 116.74 209.601 115.845C209.199 114.951 208.978 113.987 208.95 113.006C208.922 112.026 209.087 111.051 209.436 110.135L214.515 96.7978C214.864 95.8819 215.39 95.0432 216.063 94.3303C216.736 93.6175 217.543 93.0435 218.438 92.6423C219.332 92.2411 220.297 92.0202 221.277 91.9918C222.258 91.9634 223.234 92.1288 224.15 92.4775Z" fill="url(#paint2_linear_20_105)"/>
<path d="M228.017 99.8634L220.482 96.9954C219.842 96.7516 219.125 97.0731 218.881 97.7138C218.637 98.3544 218.959 99.0709 219.6 99.3147L227.134 102.183C227.774 102.427 228.491 102.105 228.735 101.464C228.979 100.824 228.658 100.107 228.017 99.8634Z" fill="white"/>
<path d="M225.511 105.02L217.977 102.152C217.336 101.908 216.619 102.23 216.374 102.87C216.131 103.511 216.452 104.228 217.093 104.471L224.627 107.339C225.268 107.583 225.985 107.262 226.229 106.621C226.473 105.98 226.151 105.264 225.511 105.02Z" fill="white"/>
<path d="M267.994 117.816L268.916 118.199C270.297 118.773 271.404 119.857 272.007 121.225C272.61 122.593 272.663 124.14 272.155 125.546C271.882 126.301 271.457 126.991 270.905 127.573C270.353 128.155 269.687 128.616 268.948 128.928C268.209 129.24 267.413 129.396 266.611 129.387C265.809 129.377 265.018 129.201 264.287 128.871L263.732 128.62C263.732 128.62 265.373 122.308 267.994 117.816Z" fill="url(#paint3_linear_20_105)"/>
<path d="M191.391 146.591L198.541 138.531C198.541 138.531 197.892 131.383 198.541 128.653C199.191 125.924 199.191 124.753 201.011 123.323C202.831 121.894 208.422 119.034 208.422 119.034V125.533L225.274 130.148C225.274 130.148 227.738 134.061 223.952 136.198C226.061 139.376 223.462 142.023 223.462 142.023C223.462 142.023 224.798 145.657 221.484 146.352C221.484 146.352 222.072 149.077 218.486 150.229C218.486 150.229 217.421 152.016 213.146 152.551C211.968 152.698 208.423 153.017 208.423 153.017L201.663 159.718L191.391 146.591Z" fill="#FFCCB3"/>
<path d="M193.153 144.605L205.642 155.774L207.048 154.381L193.993 143.658L193.153 144.605Z" fill="#FCBA9F"/>
<path d="M223.616 136.205C223.616 136.205 219.886 135.862 218.122 135.228L223.616 136.205Z" fill="#E56441"/>
<path d="M223.616 136.205C223.616 136.205 219.886 135.862 218.122 135.228" stroke="#E56441" stroke-width="1.20536" stroke-linecap="round"/>
<path d="M222.922 141.912C222.922 141.912 219.191 141.569 217.428 140.934L222.922 141.912Z" fill="#E56441"/>
<path d="M222.922 141.912C222.922 141.912 219.191 141.569 217.428 140.934" stroke="#E56441" stroke-width="1.20536" stroke-linecap="round"/>
<path d="M221.456 146.251C221.456 146.251 217.725 145.908 215.962 145.274L221.456 146.251Z" fill="#E56441"/>
<path d="M221.456 146.251C221.456 146.251 217.725 145.908 215.962 145.274" stroke="#E56441" stroke-width="1.20536" stroke-linecap="round"/>
<path d="M218.122 150.202C218.122 150.202 214.392 149.859 212.628 149.225L218.122 150.202Z" fill="#E56441"/>
<path d="M218.122 150.202C218.122 150.202 214.392 149.859 212.628 149.225" stroke="#E56441" stroke-width="1.20536" stroke-linecap="round"/>
<path d="M142.747 117.485C142.747 117.485 139.498 99.2135 124.877 101.928C115.074 103.748 111.234 109.216 112.652 123.791C113.642 133.982 121.03 179.428 123.686 197.994C126.413 217.048 143.375 220.409 154.825 210.934L207.95 157.838L191.602 143.218L150.522 176.999L142.747 117.485Z" fill="#5661AE"/>
<path fill-rule="evenodd" clip-rule="evenodd" d="M193.99 114.788L179.159 108.325C176.5 121.461 177.637 118.685 175.805 119.673C175.805 119.673 160.158 120.269 156.126 101.185L138.95 101.754C138.95 101.754 134.132 114.888 154.608 121.264C151.387 128.961 162.714 142.126 177.177 127.293C187.2 142.23 193.936 128.297 189.096 122.889C196.331 118.679 193.99 114.788 193.99 114.788Z" fill="white"/>
<path d="M179.783 91.3728L178.908 115.866C178.908 115.866 180.106 121.23 174.6 120.635C169.093 120.04 161.681 115.705 157.513 110.944C153.347 106.184 153.631 105.802 155.416 102.678C157.202 99.5536 165.587 75.7419 165.587 75.7419L179.783 91.3728Z" fill="#FFCCB3"/>
<path d="M179.657 93.4268L169.505 86.963C169.505 86.963 174.003 106.701 178.907 115.866L179.657 93.4268Z" fill="#FCBA9F"/>
<path d="M168.314 26.6637C168.593 21.9589 167.567 17.2689 165.348 13.1109C161.677 6.47553 154.051 -2.70143 142.471 1.25166C130.892 5.20474 122.419 14.099 126.797 26.6637C131.174 39.2284 143.336 43.2494 149.532 41.9107C155.729 40.5721 168.314 26.6637 168.314 26.6637Z" fill="#493212"/>
<path d="M172.044 28.411C171.377 27.2865 170.379 26.3959 169.186 25.8608C167.993 25.3257 166.664 25.1726 165.38 25.422C160.798 26.2663 155.976 29.8824 151.876 34.2225C147.776 38.5619 147.909 41.7114 149.772 43.6327C151.634 45.5534 172.044 28.411 172.044 28.411Z" fill="#1C85E8"/>
<path d="M206.143 57.1226C206.143 57.1226 203.699 80.722 192.214 91.4678C184.724 98.476 177.855 96.6806 167.614 82.6556C158.223 69.7965 157.398 63.5426 157.398 63.5426L167.322 41.2195C167.322 41.2195 207.311 35.529 206.143 57.1226Z" fill="#FFCCB3"/>
<path d="M202.079 52.5017C202.079 52.5017 196.428 61.4947 186.077 61.6404C186.077 61.6404 179.839 67.4839 170.332 64.4097C170.332 64.4097 174.46 58.1495 170.332 55.9561C163.323 52.2313 160.908 64.6516 164.646 68.9775C167.187 71.9171 167.331 77.2466 165.436 80.3072C163.541 83.3678 160.804 89.0404 160.804 89.0404C160.804 89.0404 155.305 84.5467 152.4 81.4613C142.297 70.7291 140.645 45.4287 157.336 33.354C174.025 21.2788 191.594 30.939 194.888 33.354C194.888 33.354 212.425 36.4159 212.457 54.6495C212.483 70.2372 201.386 73.9458 201.386 73.9458L204.698 61.3632C204.698 61.3632 202.649 61.583 202.079 52.5017Z" fill="#493212"/>
<path d="M183.639 82.0187L191.086 85.6712C191.053 85.7088 191.016 85.7502 190.975 85.7934C190.745 86.0384 190.411 86.355 189.99 86.6414C189.15 87.2117 187.994 87.6474 186.638 87.2068C184.55 86.3106 183.841 84.9225 183.633 83.774C183.526 83.1895 183.549 82.6581 183.599 82.2723C183.612 82.1779 183.625 82.0934 183.639 82.0187Z" fill="#E56441" stroke="#E56441"/>
<path d="M201.071 73.6095C201.404 72.2634 200.932 70.9889 200.019 70.763C199.105 70.5377 198.094 71.4462 197.762 72.793C197.43 74.139 197.901 75.4135 198.815 75.6388C199.729 75.8647 200.739 74.9556 201.071 73.6095Z" fill="#080B09"/>
<path d="M187.523 70.4705C187.855 69.1244 187.384 67.8499 186.47 67.624C185.556 67.3987 184.546 68.3072 184.214 69.6539C183.881 71 184.353 72.2745 185.266 72.4998C186.18 72.7257 187.191 71.8166 187.523 70.4705Z" fill="#080B09"/>
<path d="M204.071 68.3794L197.176 66.797C197.061 66.7606 196.963 66.6834 196.901 66.5797C196.839 66.4767 196.816 66.3545 196.837 66.2353C196.913 66.0329 197.03 65.8477 197.18 65.6916C197.331 65.5354 197.511 65.4108 197.71 65.3262C197.91 65.2417 198.125 65.1985 198.341 65.1991C198.558 65.1991 198.772 65.2435 198.972 65.3293L204.379 67.6191C204.829 67.7302 204.634 68.5183 204.071 68.3794Z" fill="#080B09"/>
<path d="M180.92 62.2094L189.9 65.0226C189.96 64.7424 189.961 64.4529 189.902 64.1721C189.843 63.8919 189.726 63.6265 189.558 63.3938C189.391 63.1611 189.176 62.9661 188.928 62.8217C188.681 62.6773 188.406 62.5859 188.121 62.5538L180.946 61.6188C180.721 61.5632 180.582 62.1261 180.92 62.2094Z" fill="#080B09"/>
<path d="M193.979 71.137L194.953 78.4056L192.385 79.6449" stroke="#E56441" stroke-width="1.22499" stroke-linecap="round"/>
<path d="M291.363 384.178H44.406C40.0474 384.178 36.5137 387.71 36.5137 392.068V469.166C36.5137 473.524 40.0474 477.056 44.406 477.056H291.363C295.722 477.056 299.256 473.524 299.256 469.166V392.068C299.256 387.71 295.722 384.178 291.363 384.178Z" fill="#1C85E8"/>
<path d="M93.6122 239.356H5.14064C2.83542 239.356 0.967285 241.225 0.967285 243.529V273.07C0.967285 275.374 2.83542 277.242 5.14064 277.242H93.6122C95.9168 277.242 97.7849 275.374 97.7849 273.07V243.529C97.7849 241.225 95.9168 239.356 93.6122 239.356Z" fill="#B4E800"/>
<path d="M118.186 430.159H124.377C124.918 430.158 125.437 429.943 125.819 429.56C126.202 429.177 126.417 428.658 126.417 428.116C126.417 427.575 126.202 427.056 125.819 426.674C125.437 426.29 124.918 426.075 124.377 426.074H118.186C117.644 426.074 117.125 426.289 116.742 426.672C116.358 427.055 116.144 427.575 116.144 428.116C116.144 428.658 116.358 429.178 116.742 429.561C117.125 429.944 117.644 430.159 118.186 430.159Z" fill="white"/>
<path d="M106.301 408.003C106.301 407.675 106.222 407.352 106.071 407.062C105.92 406.77 105.701 406.52 105.433 406.332C105.164 406.143 104.854 406.022 104.53 405.978C104.205 405.935 103.874 405.97 103.565 406.081L65.2104 419.885H56.2815C55.7395 419.885 55.2196 420.1 54.8369 420.484C54.4535 420.866 54.238 421.386 54.238 421.928V434.305C54.238 434.847 54.4535 435.366 54.8369 435.75C55.2196 436.132 55.7395 436.348 56.2815 436.348H63.5238V452.871C63.5238 453.14 63.5769 453.406 63.6793 453.653C63.7818 453.901 63.9325 454.127 64.122 454.316C64.3121 454.505 64.5375 454.656 64.785 454.759C65.0332 454.862 65.2987 454.914 65.5672 454.914H76.4001C76.6686 454.914 76.9347 454.861 77.1823 454.759C77.4304 454.656 77.6558 454.505 77.8453 454.316C78.0348 454.126 78.1855 453.901 78.2879 453.653C78.391 453.405 78.4435 453.14 78.4435 452.871V441.111L103.565 450.152C103.874 450.263 104.205 450.298 104.53 450.254C104.854 450.21 105.164 450.09 105.432 449.901C105.701 449.712 105.92 449.462 106.071 449.171C106.222 448.88 106.301 448.558 106.301 448.23V408.003ZM58.325 432.262V423.97H63.5238V432.262H58.325ZM74.3572 450.828H67.6107V437.212L74.3572 439.639V450.828ZM67.6107 432.869V423.363L102.214 410.91V445.324L67.6107 432.869Z" fill="white"/>
<path d="M118.084 443.691L114.988 440.597C114.799 440.407 114.573 440.257 114.325 440.154C114.078 440.051 113.812 439.999 113.544 439.999C113.275 439.999 113.01 440.051 112.762 440.154C112.514 440.257 112.289 440.407 112.098 440.597C111.909 440.786 111.758 441.011 111.656 441.259C111.553 441.507 111.5 441.773 111.5 442.041C111.5 442.309 111.553 442.575 111.656 442.823C111.758 443.071 111.909 443.296 112.098 443.486L115.194 446.58C115.384 446.77 115.609 446.92 115.857 447.023C116.105 447.125 116.371 447.178 116.639 447.178C116.907 447.178 117.173 447.125 117.421 447.023C117.669 446.92 117.894 446.77 118.084 446.58C118.273 446.39 118.424 446.165 118.526 445.917C118.63 445.669 118.682 445.404 118.682 445.135C118.682 444.868 118.63 444.602 118.526 444.354C118.424 444.106 118.273 443.881 118.084 443.691Z" fill="white"/>
<path d="M112.098 415.636C112.482 416.02 113.002 416.234 113.544 416.234C114.086 416.234 114.606 416.02 114.988 415.636L118.084 412.542C118.467 412.159 118.682 411.639 118.682 411.098C118.682 410.556 118.467 410.036 118.084 409.653C117.7 409.27 117.181 409.055 116.639 409.055C116.097 409.055 115.577 409.27 115.194 409.653L112.098 412.747C111.716 413.131 111.5 413.65 111.5 414.192C111.5 414.733 111.716 415.253 112.098 415.636Z" fill="white"/>
<path d="M151.99 409.643H192.405" stroke="white" stroke-width="14.8881" stroke-miterlimit="10" stroke-linecap="round"/>
<path d="M151.99 454.882H226.884" stroke="white" stroke-width="14.8881" stroke-miterlimit="10" stroke-linecap="round"/>
<path opacity="0.4" d="M151.99 432.262H247.858" stroke="white" stroke-width="14.8881" stroke-miterlimit="10" stroke-linecap="round"/>
<path d="M617.297 302.361H571.755C569.267 302.361 567.248 304.38 567.248 306.869V348.411C567.248 350.9 569.267 352.918 571.755 352.918H617.297C619.792 352.918 621.81 350.9 621.81 348.411V306.869C621.81 304.38 619.792 302.361 617.297 302.361Z" fill="#FACC15"/>
<path d="M42.9676 266.282C42.2595 266.282 41.6217 266.161 41.055 265.918C40.4882 265.665 40.0431 265.312 39.719 264.856C39.3955 264.401 39.2332 263.87 39.2332 263.263H41.0852C41.126 263.718 41.3032 264.092 41.6168 264.386C41.9403 264.679 42.391 264.826 42.9676 264.826C43.5646 264.826 44.0301 264.684 44.364 264.401C44.698 264.107 44.8653 263.733 44.8653 263.278C44.8653 262.924 44.7585 262.635 44.5462 262.413C44.3437 262.19 44.0856 262.018 43.772 261.897C43.4689 261.776 43.0435 261.644 42.4971 261.502C41.8088 261.32 41.247 261.138 40.8124 260.956C40.387 260.764 40.0228 260.47 39.719 260.076C39.4159 259.681 39.264 259.155 39.264 258.498C39.264 257.891 39.4159 257.359 39.719 256.904C40.0228 256.449 40.4481 256.1 40.9945 255.857C41.5408 255.614 42.173 255.493 42.8916 255.493C43.914 255.493 44.7487 255.751 45.3963 256.267C46.0544 256.773 46.4186 257.471 46.4896 258.361H44.5764C44.5462 257.976 44.364 257.648 44.03 257.375C43.6961 257.101 43.2559 256.965 42.7095 256.965C42.2138 256.965 41.8088 257.091 41.4952 257.344C41.1815 257.597 41.0247 257.962 41.0247 258.437C41.0247 258.761 41.121 259.029 41.313 259.241C41.5155 259.443 41.7687 259.605 42.0718 259.727C42.3755 259.848 42.7904 259.98 43.317 260.121C44.0152 260.314 44.582 260.506 45.0166 260.698C45.4623 260.89 45.8364 261.189 46.1402 261.593C46.4538 261.988 46.6106 262.519 46.6106 263.187C46.6106 263.723 46.4643 264.229 46.1704 264.704C45.8871 265.18 45.4673 265.564 44.9104 265.858C44.364 266.141 43.7164 266.282 42.9676 266.282ZM52.9787 257.678C53.6164 257.678 54.1832 257.815 54.6789 258.088C55.1852 258.361 55.5796 258.766 55.863 259.302C56.1563 259.838 56.3032 260.486 56.3032 261.244V266.176H54.5882V261.502C54.5882 260.754 54.4005 260.182 54.0264 259.788C53.6516 259.383 53.1404 259.18 52.4928 259.18C51.8452 259.18 51.3291 259.383 50.9445 259.788C50.5704 260.182 50.3833 260.754 50.3833 261.502V266.176H48.6528V254.947H50.3833V258.786C50.6766 258.432 51.0457 258.158 51.4915 257.966C51.9465 257.775 52.4422 257.678 52.9787 257.678ZM57.9336 261.958C57.9336 261.118 58.1059 260.374 58.4497 259.727C58.8041 259.079 59.2795 258.579 59.8765 258.224C60.484 257.86 61.1519 257.678 61.8804 257.678C62.5379 257.678 63.1102 257.81 63.5955 258.073C64.0918 258.326 64.4863 258.644 64.7796 259.029V257.815H66.5255V266.176H64.7796V264.932C64.4863 265.326 64.0863 265.655 63.5806 265.918C63.0744 266.181 62.4978 266.313 61.8502 266.313C61.1316 266.313 60.4735 266.131 59.8765 265.766C59.2795 265.392 58.8041 264.877 58.4497 264.219C58.1059 263.551 57.9336 262.797 57.9336 261.958ZM64.7796 261.988C64.7796 261.411 64.6586 260.91 64.4153 260.486C64.1826 260.061 63.8739 259.737 63.4893 259.514C63.1047 259.292 62.6898 259.18 62.2447 259.18C61.7995 259.18 61.3847 259.292 61.0001 259.514C60.6155 259.727 60.3018 260.045 60.0586 260.47C59.8259 260.885 59.7098 261.381 59.7098 261.958C59.7098 262.534 59.8259 263.04 60.0586 263.475C60.3018 263.91 60.6155 264.244 61.0001 264.477C61.3946 264.699 61.8094 264.81 62.2447 264.81C62.6898 264.81 63.1047 264.699 63.4893 264.477C63.8739 264.254 64.1826 263.93 64.4153 263.506C64.6586 263.071 64.7796 262.565 64.7796 261.988ZM70.529 259.029C70.7815 258.604 71.1155 258.275 71.5304 258.042C71.9558 257.799 72.4564 257.678 73.0337 257.678V259.469H72.5929C71.915 259.469 71.3989 259.641 71.0452 259.985C70.7007 260.328 70.529 260.926 70.529 261.776V266.176H68.798V257.815H70.529V259.029ZM82.2898 261.791C82.2898 262.104 82.2694 262.387 82.2293 262.64H75.8383C75.889 263.308 76.1371 263.845 76.5823 264.249C77.0274 264.654 77.5737 264.856 78.2214 264.856C79.1523 264.856 79.8105 264.467 80.1951 263.688H82.062C81.8088 264.456 81.3489 265.089 80.6809 265.584C80.0228 266.07 79.203 266.313 78.2214 266.313C77.4219 266.313 76.7039 266.136 76.0661 265.782C75.4389 265.418 74.9425 264.912 74.5783 264.264C74.2246 263.606 74.0474 262.848 74.0474 261.988C74.0474 261.128 74.219 260.374 74.5635 259.727C74.9172 259.069 75.4081 258.563 76.0359 258.209C76.673 257.855 77.4021 257.678 78.2214 257.678C79.011 257.678 79.7141 257.85 80.3315 258.194C80.9489 258.538 81.4298 259.024 81.7737 259.651C82.1175 260.268 82.2898 260.981 82.2898 261.791ZM80.4834 261.244C80.4735 260.607 80.2457 260.096 79.8006 259.712C79.3548 259.327 78.8035 259.135 78.1454 259.135C77.5484 259.135 77.0379 259.327 76.6125 259.712C76.1878 260.086 75.9347 260.597 75.8538 261.244H80.4834Z" fill="white"/>
<path d="M26.5273 260.946C25.9284 260.946 25.3376 261.078 24.7962 261.332C24.2548 261.587 23.7763 261.958 23.3948 262.419L18.5324 259.659C18.8448 258.78 18.8448 257.82 18.5324 256.941L23.3942 254.18C24.0442 254.962 24.9629 255.472 25.9704 255.61C26.978 255.748 28.0003 255.504 28.8362 254.926C29.6727 254.347 30.2617 253.477 30.4876 252.486C30.7136 251.495 30.5605 250.455 30.058 249.571C29.5548 248.688 28.7393 248.025 27.7719 247.713C26.8045 247.4 25.755 247.462 24.8302 247.885C23.906 248.308 23.1732 249.062 22.7774 249.997C22.3811 250.934 22.3496 251.984 22.6898 252.942L17.828 255.703C17.2934 255.058 16.5729 254.594 15.7648 254.373C14.9567 254.153 14.1004 254.187 13.312 254.471C12.5243 254.755 11.8433 255.275 11.3618 255.96C10.8803 256.645 10.6216 257.462 10.6216 258.3C10.6216 259.137 10.8803 259.954 11.3618 260.64C11.8427 261.325 12.5243 261.844 13.312 262.129C14.1004 262.413 14.9567 262.447 15.7648 262.226C16.5729 262.006 17.2934 261.542 17.8274 260.897L22.6898 263.657C22.4015 264.471 22.3798 265.356 22.628 266.184C22.8762 267.011 23.3812 267.738 24.0702 268.26C24.7592 268.781 25.5969 269.07 26.4606 269.085C27.3249 269.098 28.1707 268.837 28.877 268.338C29.5826 267.84 30.1111 267.13 30.3864 266.311C30.6611 265.492 30.6685 264.606 30.4068 263.783C30.145 262.96 29.6283 262.24 28.9307 261.731C28.2331 261.22 27.3916 260.946 26.5273 260.946ZM26.5273 248.936C27.0508 248.936 27.5626 249.091 27.9978 249.383C28.4337 249.673 28.7726 250.086 28.9733 250.57C29.1739 251.054 29.2264 251.586 29.1239 252.099C29.022 252.613 28.7695 253.085 28.3997 253.454C28.0293 253.825 27.5577 254.076 27.044 254.179C26.5304 254.281 25.9982 254.228 25.5142 254.028C25.0302 253.828 24.6172 253.488 24.3264 253.053C24.0356 252.617 23.88 252.106 23.8807 251.582C23.8813 250.881 24.1603 250.208 24.6567 249.712C25.1524 249.216 25.8253 248.937 26.5273 248.936ZM14.6962 260.946C14.1726 260.946 13.6609 260.791 13.2256 260.5C12.7904 260.209 12.4508 259.796 12.2508 259.313C12.0502 258.829 11.9977 258.297 12.0995 257.784C12.202 257.27 12.4539 256.799 12.8237 256.429C13.1941 256.059 13.6658 255.807 14.1794 255.704C14.6925 255.603 15.2246 255.655 15.7086 255.855C16.192 256.056 16.605 256.395 16.8964 256.83C17.1872 257.265 17.3422 257.776 17.3422 258.3C17.3416 259.001 17.0625 259.674 16.5662 260.17C16.0704 260.665 15.3975 260.944 14.6962 260.946ZM26.5273 267.663C26.0038 267.663 25.492 267.508 25.0561 267.217C24.6209 266.926 24.2813 266.513 24.0813 266.029C23.8807 265.546 23.8282 265.014 23.93 264.5C24.0325 263.987 24.2844 263.515 24.6548 263.145C25.0246 262.775 25.4963 262.523 26.0099 262.421C26.5236 262.319 27.0557 262.371 27.5397 262.571C28.0231 262.772 28.4368 263.111 28.7276 263.546C29.0183 263.982 29.1733 264.493 29.1733 265.017C29.1727 265.718 28.8936 266.39 28.3973 266.887C27.9015 267.382 27.2286 267.661 26.5273 267.663Z" fill="white"/>
<path d="M577.545 335.321L585.472 327.395C585.991 326.877 586.695 326.586 587.423 326.586C588.158 326.586 588.862 326.877 589.38 327.395L595.579 333.594C596.097 334.112 596.801 334.403 597.536 334.403C598.264 334.403 598.968 334.112 599.486 333.594L609.624 323.462" stroke="white" stroke-width="5.16228" stroke-miterlimit="10" stroke-linecap="round"/>
<path d="M604.919 321.637H610.556C610.809 321.637 611.056 321.739 611.235 321.919C611.414 322.098 611.513 322.343 611.513 322.597V327.696" stroke="white" stroke-width="5.16228" stroke-miterlimit="10" stroke-linecap="round"/>
<path d="M480.211 225.815C481.633 222.577 480.788 219.076 478.324 217.995C475.861 216.914 472.711 218.662 471.29 221.899C469.868 225.137 470.712 228.638 473.176 229.72C475.639 230.801 478.789 229.052 480.211 225.815Z" stroke="#080B09" stroke-miterlimit="10"/>
<path d="M466.077 219.777C467.498 216.54 466.654 213.038 464.191 211.957C461.727 210.876 458.577 212.624 457.155 215.862C455.733 219.1 456.578 222.6 459.042 223.682C461.505 224.763 464.655 223.015 466.077 219.777Z" stroke="#080B09" stroke-miterlimit="10"/>
<path d="M466.078 219.78C466.078 219.78 469.48 219.72 471.29 221.899" stroke="#080B09" stroke-miterlimit="10"/>
<path d="M479.798 226.621H494.461" stroke="#080B09" stroke-miterlimit="10"/>
<path d="M177.177 127.293C177.177 127.293 178.181 140.834 177.177 151.567" stroke="#96BAFD" stroke-miterlimit="10"/>
<path fill-rule="evenodd" clip-rule="evenodd" d="M477.166 266.494C490.856 257.923 493.128 252.589 493.128 252.589L498.894 263.758L482.9 275.809C482.259 274.116 481.475 272.483 480.556 270.925L476.055 274.511L477.166 266.494ZM460.599 263.686L466.506 259.267C466.506 259.267 466.042 263.361 472.156 266.145L472.664 273.749L469.704 270.879L465.762 276.082L460.599 263.686Z" fill="#1C85E8"/>
<path d="M476.055 274.511L477.166 266.494L480.556 270.925L476.055 274.511Z" fill="#1C85E8"/>
<path d="M472.156 266.145L469.704 270.879L472.665 273.749L472.156 266.145Z" fill="#1C85E8"/>
<path d="M472.665 273.749L474.53 296.79C474.556 297.112 474.691 297.416 474.912 297.652C475.133 297.887 475.427 298.042 475.747 298.089C475.958 298.119 476.172 298.103 476.375 298.041C476.579 297.978 476.765 297.871 476.922 297.728C477.078 297.584 477.201 297.407 477.281 297.21C477.36 297.013 477.395 296.801 477.382 296.589L476.055 274.511L474.612 275.809L472.665 273.749Z" fill="#1C85E8"/>
<path d="M480.869 283.788C481.853 283.788 482.652 282.99 482.652 282.006C482.652 281.022 481.853 280.224 480.869 280.224C479.884 280.224 479.086 281.022 479.086 282.006C479.086 282.99 479.884 283.788 480.869 283.788Z" fill="#1C85E8"/>
<path d="M481.448 294.284C482.433 294.284 483.231 293.486 483.231 292.502C483.231 291.517 482.433 290.719 481.448 290.719C480.464 290.719 479.666 291.517 479.666 292.502C479.666 293.486 480.464 294.284 481.448 294.284Z" fill="#1C85E8"/>
<defs>
<linearGradient id="paint0_linear_20_105" x1="161.871" y1="98.9562" x2="223.621" y2="663.364" gradientUnits="userSpaceOnUse">
<stop stop-color="white"/>
<stop offset="1" stop-color="#94B9FF"/>
</linearGradient>
<linearGradient id="paint1_linear_20_105" x1="453.198" y1="246.342" x2="514.948" y2="810.748" gradientUnits="userSpaceOnUse">
<stop stop-color="white"/>
<stop offset="1" stop-color="#94B9FF"/>
</linearGradient>
<linearGradient id="paint2_linear_20_105" x1="227.599" y1="93.7156" x2="213.485" y2="154.166" gradientUnits="userSpaceOnUse">
<stop stop-color="white"/>
<stop offset="1" stop-color="#94B9FF"/>
</linearGradient>
<linearGradient id="paint3_linear_20_105" x1="267.898" y1="117.788" x2="271.378" y2="142.112" gradientUnits="userSpaceOnUse">
<stop stop-color="white"/>
<stop offset="1" stop-color="#94B9FF"/>
</linearGradient>
</defs>
</svg>
